<svg xmlns="http://www.w3.org/2000/svg" xmlns:xlink="http://www.w3.org/1999/xlink" width="180" height="39" viewBox="0 0 180 39">
    <defs>
        <path id="a" d="M0 .196v38.436h29.259V.196z"/>
    </defs>
    <g fill="none" fill-rule="evenodd">
        <path fill="#FFF" d="M83.165 14.355v10.342h-2.382V14.325c0-3.148-1.285-4.612-4.044-4.612-3.284 0-5.002 2.426-5.002 4.822v10.162h-2.381V7.692h2.381v1.853c1.168-1.182 2.938-2.093 5.151-2.093 4.047 0 6.277 2.453 6.277 6.903zm28.18-6.903c-2.214 0-3.984.91-5.152 2.093V.214h-2.38v24.483h2.38V14.535c0-2.396 1.718-4.822 5.003-4.822 2.76 0 4.044 1.464 4.044 4.612v10.372h2.38V14.355c0-4.45-2.228-6.903-6.274-6.903zm35.368 8.609v.24c0 4.924-3.509 8.637-8.16 8.637-4.56 0-8.131-3.78-8.131-8.608v-.24c0-4.907 3.522-8.608 8.19-8.608 4.694 0 8.101 3.609 8.101 8.579zm-2.411.24v-.24c0-3.738-2.34-6.348-5.69-6.348-3.35 0-5.78 2.682-5.78 6.377v.24c0 3.68 2.42 6.348 5.751 6.348 3.368 0 5.719-2.623 5.719-6.378zm12.618-8.849c-2.213 0-3.983.91-5.153 2.093V7.692h-2.38v17.005h2.38V14.535c0-2.396 1.72-4.822 5.004-4.822 2.759 0 4.045 1.464 4.045 4.612v10.372h2.38V14.355c0-4.45-2.23-6.903-6.276-6.903zM93.663 22.678c-3.331 0-5.75-2.67-5.75-6.348v-.24c0-3.695 2.432-6.377 5.78-6.377 2.324 0 4.16 1.256 5.069 3.272h2.554c-1.094-3.315-3.968-5.503-7.623-5.503-4.669 0-8.19 3.7-8.19 8.608v.24c0 4.827 3.57 8.608 8.13 8.608 3.95 0 7.073-2.677 7.927-6.495H99.1c-.72 2.572-2.756 4.235-5.437 4.235zm34.965-15.226c-2.214 0-3.984.91-5.153 2.093V7.692h-2.38v17.007h2.38V14.535c0-2.396 1.719-4.822 5.003-4.822.633 0 1.185.082 1.664.238V7.584a8.501 8.501 0 0 0-1.514-.132zm-83.69 7.398c-3.79-.625-4.45-1.302-4.45-2.678 0-1.472 1.535-2.46 3.744-2.46 2.312 0 3.608.842 3.98 2.648l.02.095h2.487l-.056-.328c-.502-2.997-2.774-4.645-6.4-4.645-3.6 0-6.213 1.972-6.213 4.69 0 3.56 3.015 4.358 6.37 4.92 3.164.545 4.135.986 4.135 2.858 0 1.72-1.552 2.787-3.97 2.787-3.299 0-4.314-1.737-4.574-3.263h-2.536c.307 3.39 3.03 5.494 7.11 5.494 3.81 0 6.473-2.09 6.473-5.079 0-3.69-2.894-4.49-6.12-5.039zm132.605-7.158l-5.16 13.972-6.026-13.972h-2.472l7.187 16.92-2.244 6.647h2.495l8.648-23.567h-2.428zm-112.636 0l-5.161 13.972L53.72 7.692H51.25l7.185 16.92-2.244 6.647h2.495l8.648-23.567h-2.427z"/>
        <g transform="translate(0 .017)">
            <mask id="b" fill="#fff">
                <use xlink:href="#a"/>
            </mask>
            <path fill="#FBC600" d="M18.34 38.632h-7.42V.196h7.418l.002 38.436zm-18.34 0h7.42V19.414H0v19.218zm21.842-19.218h7.417V.196h-7.417v19.218z" mask="url(#b)"/>
        </g>
    </g>
</svg>
